<?xml version="1.0" encoding="utf-8"?>
<!-- Svg Vector Icons : http://www.onlinewebfonts.com/icon -->
<!DOCTYPE svg PUBLIC "-//W3C//DTD SVG 1.1//EN" "http://www.w3.org/Graphics/SVG/1.1/DTD/svg11.dtd">
<svg version="1.1" xmlns="http://www.w3.org/2000/svg" xmlns:xlink="http://www.w3.org/1999/xlink" x="0px" y="0px" viewBox="0 0 1000 1000" enable-background="new 0 0 1000 1000" xml:space="preserve">
<metadata> Svg Vector Icons : http://www.onlinewebfonts.com/icon </metadata>
<g><g transform="translate(0.000000,511.000000) scale(0.100000,-0.100000)"><path d="M4772.9,4942.1c-129.4-48.3-226-136-434.4-399.3c-247.9-309.3-364.2-416.8-506.8-458.5c-186.5-54.8-285.2-41.7-662.6,87.8c-386.1,133.8-530.9,149.2-719.6,85.6c-136-46.1-285.2-182.1-355.4-324.7c-46.1-96.5-63.6-182.1-96.5-498c-43.9-430-76.8-533.1-215-671.3c-116.3-116.3-230.4-164.5-596.7-250.1c-462.9-107.5-634-230.4-717.4-517.8c-61.4-212.8-37.3-318.1,171.1-728.4l182.1-359.8V729.9c0-247.9-48.3-335.7-355.4-653.8C170.2-228.8,100-353.9,100-577.6c0-171.1,72.4-346.7,188.7-462.9c41.7-41.7,208.4-151.4,370.8-243.5c309.3-177.7,423.4-274.2,502.4-432.2c79-158,79-280.8,0-671.3c-76.8-381.7-76.8-489.3-4.4-656c65.8-144.8,184.3-263.3,333.5-329.1c133.8-59.2,133.8-59.2,587.9-52.7c427.8,6.6,460.7,4.4,557.3-41.7c195.3-89.9,280.8-208.4,434.4-587.9c74.6-188.7,158-373,184.3-410.3c105.3-155.8,344.4-280.8,539.7-280.8c153.6,0,283,61.4,598.9,283c546.3,381.7,677.9,379.5,1228.6-13.2c373-267.6,522.2-313.7,770.1-239.1c140.4,41.7,263.3,127.2,340.1,232.5c35.1,48.2,125,239.1,199.6,425.6c153.6,386.1,223.8,484.8,412.4,577l125.1,61.4h482.6c469.5,0,484.8,2.2,587.9,54.8c193.1,98.7,333.5,302.7,357.6,522.1c8.8,70.2-11,217.2-57,454.2c-79,390.5-79,509,0,673.5c72.4,155.8,168.9,239.1,495.8,425.6c166.7,94.3,335.7,206.2,377.3,247.9C9829.8-924.3,9900-753.2,9900-577.6c0,228.1-63.6,337.8-375.1,664.7c-311.5,326.9-364.2,430-351,677.9c6.6,133.8,24.1,179.9,188.7,504.6c142.6,278.6,184.3,383.9,195.3,480.5c15.4,155.8-35.1,335.7-131.6,462.9c-116.3,153.6-247.9,215-647.2,309.3c-403.7,96.5-513.4,153.6-634,331.3c-92.1,136-107.5,197.5-147,612.1c-26.3,289.6-41.7,368.6-89.9,465.1c-70.2,144.8-219.4,280.8-355.4,326.9c-190.8,65.8-335.6,48.3-717.4-85.6c-372.9-131.6-473.9-144.8-664.8-87.8c-138.2,41.7-269.8,155.8-458.5,401.5c-311.5,403.7-401.5,467.3-677.9,480.5C4917.7,4970.6,4830,4961.9,4772.9,4942.1z M5637.3,3141c1268-280.8,2198.2-1217.6,2472.5-2492.2c57-261.1,57-963.1,0-1226.4c-272.1-1276.9-1217.6-2222.4-2494.4-2494.5c-144.8-30.7-283-39.5-614.3-39.5s-469.5,8.8-614.3,39.5c-1268.1,272.1-2211.4,1208.8-2490,2472.5c-54.8,250.1-68,838.1-26.3,1107.9c217.2,1369,1246.1,2413.3,2615.1,2654.6C4722.5,3204.6,5409.2,3191.4,5637.3,3141z"/><path d="M4735.6,2822.8C3502.7,2700,2511.1,1802.7,2256.6,578.5c-65.8-309.3-65.8-770,0-1083.8c204-980.6,879.7-1761.7,1818.7-2099.5c563.8-201.8,1290-201.8,1851.6,0c684.5,245.7,1246.1,739.3,1566.4,1375.5c208.4,412.5,296.2,789.8,298.4,1276.9c0,1184.7-737.1,2224.6-1864.8,2630.4C5591.2,2798.7,5093.2,2860.1,4735.6,2822.8z M6126.5,1208.1c195.3-100.9,278.7-208.4,278.7-357.6c0-98.7,6.6-87.8-713-1105.7c-425.6-601.1-469.5-656-568.2-706.4c-144.8-72.4-381.7-76.8-539.7-8.8c-100.9,43.9-136,83.4-476.1,544.1c-201.8,272-399.3,544.1-438.8,603.3c-129.4,188.7-85.6,359.8,125.1,495.8c138.2,87.8,265.5,107.5,362,57c46.1-26.3,177.7-184.3,375.2-451.9c168.9-228.2,309.3-414.6,315.9-414.6s204,278.6,438.8,618.7C5521,822,5747,1133.6,5786.5,1173c61.4,57,90,70.2,171.1,70.2C6012.5,1243.3,6087.1,1227.9,6126.5,1208.1z"/></g></g>
</svg>